<svg width="42" height="42" viewBox="0 0 42 42" fill="none" xmlns="http://www.w3.org/2000/svg"><g fill="#698AA9" id="colorA1"><rect width="42" height="42" rx="10"></rect></g><g fill="#475C70" id="colorD"><path d="M33.5495 32.6358C33.806 33.2916 33.3224 34 32.6182 34H29.6108C29.196 34 28.8242 33.7438 28.6764 33.3561L27.0203 29.0105H15.1457L13.4896 33.3561C13.3418 33.7438 12.97 34 12.5551 34H9.54776C8.8436 34 8.35999 33.2916 8.61644 32.6358L18.0015 8.63581C18.1515 8.25236 18.5211 8 18.9328 8H23.2331C23.6448 8 24.0145 8.25236 24.1644 8.63581L33.5495 32.6358ZM25.7397 24.9955L21.2702 13.0981C21.2053 12.9252 20.9607 12.9252 20.8958 13.0981L16.4263 24.9955H25.7397Z"></path></g></svg>