<svg width="18" height="18" viewBox="0 0 18 18" fill="none" xmlns="http://www.w3.org/2000/svg">
<path d="M9.35355 12.1824C9.15829 12.3776 8.84171 12.3776 8.64645 12.1824L5.50728 9.04322C5.23448 8.77041 5.23133 8.32909 5.50022 8.05242C5.77459 7.77011 6.22689 7.76689 6.50525 8.04525L8.3 9.84V2.7C8.3 2.3134 8.6134 2 9 2C9.3866 2 9.7 2.3134 9.7 2.7V9.84L11.4948 8.04525C11.7731 7.76689 12.2254 7.77011 12.4998 8.05242C12.7687 8.32909 12.7655 8.77041 12.4927 9.04322L9.35355 12.1824ZM3.68723 16C3.21574 16 2.81667 15.8367 2.49 15.51C2.16333 15.1833 2 14.7843 2 14.3128V12.482C2 12.0954 2.3134 11.782 2.7 11.782C3.0866 11.782 3.4 12.0954 3.4 12.482V14.3128C3.4 14.3846 3.42994 14.4504 3.48983 14.5102C3.54957 14.5701 3.61537 14.6 3.68723 14.6H14.3128C14.3846 14.6 14.4504 14.5701 14.5102 14.5102C14.5701 14.4504 14.6 14.3846 14.6 14.3128V12.482C14.6 12.0954 14.9134 11.782 15.3 11.782C15.6866 11.782 16 12.0954 16 12.482V14.3128C16 14.7843 15.8367 15.1833 15.51 15.51C15.1833 15.8367 14.7843 16 14.3128 16H3.68723Z" fill="white"/>
</svg>
