<svg width="18" height="18" viewBox="0 0 18 18" fill="none" xmlns="http://www.w3.org/2000/svg">
<path opacity="0.5" d="M6 9V4C6 3.44772 6.44772 3 7 3H13.5M6 9V14C6 14.5523 6.44772 15 7 15H13.5M6 9H15" stroke="white" stroke-width="1.5"/>
<rect x="13.5" y="1.5" width="3" height="3" rx="1.5" stroke="white"/>
<rect x="13.5" y="13.5" width="3" height="3" rx="1.5" stroke="white"/>
<rect x="13" y="7" width="4" height="4" rx="2" fill="white"/>
<rect x="4" y="7" width="4" height="4" rx="2" fill="white"/>
<path d="M2 8.25C1.58579 8.25 1.25 8.58579 1.25 9C1.25 9.41421 1.58579 9.75 2 9.75V8.25ZM2 9.75H15V8.25H2V9.75Z" fill="white"/>
</svg>
